<svg width="32" height="32" viewBox="0 0 32 32" fill="none" xmlns="http://www.w3.org/2000/svg">
<g clip-path="url(#clip0_0_3)">
<path d="M20.8193 22.3614H11.1807C8.51911 22.3614 6.36145 24.5191 6.36145 27.1807C6.36145 29.8423 8.51911 32 11.1807 32H20.8193C23.4809 32 25.6386 29.8423 25.6386 27.1807C25.6386 24.5191 23.4809 22.3614 20.8193 22.3614Z" fill="#1AD1A5"/>
<path d="M16 20.4337C21.5362 20.4337 26.0241 15.9458 26.0241 10.4096C26.0241 4.87348 21.5362 0.38554 16 0.38554C10.4638 0.38554 5.9759 4.87348 5.9759 10.4096C5.9759 15.9458 10.4638 20.4337 16 20.4337Z" fill="black" fill-opacity="0.3"/>
<path d="M16 20.0482C21.3232 20.0482 25.6386 15.7329 25.6386 10.4096C25.6386 5.08641 21.3232 0.771084 16 0.771084C10.6768 0.771084 6.36145 5.08641 6.36145 10.4096C6.36145 15.7329 10.6768 20.0482 16 20.0482Z" fill="white"/>
<path d="M16 14.7277C18.3848 14.7277 20.3181 12.7944 20.3181 10.4096C20.3181 8.02483 18.3848 6.09157 16 6.09157C13.6152 6.09157 11.6819 8.02483 11.6819 10.4096C11.6819 12.7944 13.6152 14.7277 16 14.7277Z" fill="#FF9903"/>
</g>
<defs>
<clipPath id="clip0_0_3">
<rect width="32" height="32" fill="white"/>
</clipPath>
</defs>
</svg>
