<?xml version="1.0" encoding="utf-8"?>
<!-- Uploaded to: SVG Repo, www.svgrepo.com, Generator: SVG Repo Mixer Tools -->
<svg fill="#000000" width="800px" height="800px" viewBox="0 0 32 32" version="1.1" xmlns="http://www.w3.org/2000/svg">
<title>e</title>
<path d="M24.672 6.021c0 0 0 0 0.001 0 0.166 0 0.3-0.134 0.3-0.3v0-0.929c-0-0.166-0.134-0.3-0.3-0.3-0 0-0.001 0-0.001 0h-15.104c-0 0-0 0-0.001 0-0.165 0-0.299 0.134-0.299 0.299 0 0 0 0 0 0.001v-0 22.4c0 0 0 0 0 0.001 0 0.166 0.134 0.3 0.3 0.3h15.104c0.166-0 0.301-0.135 0.301-0.301v0-0.928c-0-0.166-0.135-0.301-0.301-0.301h-13.876v-9.224h11.411c0 0 0 0 0.001 0 0.166 0 0.3-0.134 0.3-0.3v0-0.928c-0-0.166-0.134-0.3-0.3-0.3-0 0-0.001 0-0.001 0h-11.411v-9.192z"></path>
</svg>