<svg width="24" height="24" viewBox="0 0 24 24" fill="none" xmlns="http://www.w3.org/2000/svg">
<path fill-rule="evenodd" clip-rule="evenodd" d="M24 5.601V1.592C23.9998 1.5319 23.9839 1.4729 23.9538 1.42087C23.9237 1.36884 23.8805 1.3256 23.8285 1.29546C23.7765 1.26531 23.7176 1.24932 23.6575 1.24906C23.5974 1.2488 23.5382 1.2643 23.486 1.294L20.846 2.802C20.7409 2.86223 20.6535 2.94916 20.5927 3.05399C20.532 3.15882 20.5 3.27784 20.5 3.399V7.408C20.5 7.672 20.785 7.838 21.014 7.706L23.654 6.198C23.7593 6.13769 23.8467 6.0506 23.9075 5.94558C23.9683 5.84056 24.0002 5.72233 24 5.601ZM0.515 1.295L8.158 5.678C8.26211 5.73764 8.38001 5.76902 8.5 5.76902C8.61999 5.76902 8.73789 5.73764 8.842 5.678L16.485 1.295C16.5373 1.26505 16.5965 1.24936 16.6567 1.24949C16.717 1.24962 16.7761 1.26557 16.8283 1.29574C16.8804 1.32591 16.9237 1.36925 16.9539 1.42142C16.984 1.47359 16.9999 1.53275 17 1.593V13.623C17 13.858 16.88 14.076 16.681 14.203L12.031 17.156L15.141 18.988C15.361 19.118 15.636 19.115 15.854 18.979L20.464 16.101C20.5134 16.07 20.5541 16.0269 20.5822 15.9758C20.6104 15.9247 20.6251 15.8673 20.625 15.809V11.724C20.625 11.47 20.765 11.238 20.987 11.118L23.494 9.772C23.5464 9.74404 23.6051 9.73011 23.6645 9.73157C23.7238 9.73303 23.7818 9.74983 23.8327 9.78033C23.8837 9.81084 23.9258 9.85401 23.9552 9.90564C23.9845 9.95728 23.9999 10.0156 24 10.075V17.606C24 17.85 23.87 18.076 23.66 18.199L15.826 22.791C15.718 22.8542 15.5949 22.8868 15.4697 22.8852C15.3446 22.8836 15.2223 22.8479 15.116 22.782L9.163 19.101C9.11309 19.0701 9.07192 19.027 9.04339 18.9757C9.01486 18.9244 8.99992 18.8667 9 18.808V15.184C9 15.069 9.057 14.962 9.153 14.898L13.193 12.204C13.2873 12.1413 13.3647 12.0563 13.4182 11.9565C13.4718 11.8567 13.4999 11.7452 13.5 11.632V7.242C13.5 7.21772 13.4935 7.19388 13.4812 7.17293C13.4689 7.15198 13.4513 7.13466 13.4302 7.12276C13.409 7.11086 13.3851 7.10479 13.3608 7.10518C13.3365 7.10558 13.3128 7.11242 13.292 7.125L8.852 9.789C8.7456 9.85289 8.62389 9.88681 8.49978 9.88716C8.37566 9.88752 8.25377 9.85429 8.147 9.791L3.645 7.123C3.62411 7.1107 3.60034 7.10412 3.5761 7.10393C3.55186 7.10374 3.52799 7.10993 3.5069 7.1219C3.48582 7.13386 3.46825 7.15117 3.45598 7.17208C3.44371 7.19298 3.43716 7.21676 3.437 7.241V15.174C3.4369 15.2347 3.42072 15.2944 3.39012 15.3468C3.35951 15.3993 3.31556 15.4427 3.26274 15.4726C3.20992 15.5026 3.15011 15.5181 3.08938 15.5174C3.02865 15.5168 2.96918 15.5001 2.917 15.469L0.5 14.019C0.19 13.833 0 13.497 0 13.135V1.593C0 1.329 0.286 1.163 0.515 1.295Z" fill="#0073E6"/>
</svg>
