<svg width="48" height="48" viewBox="0 0 48 48" fill="none" xmlns="http://www.w3.org/2000/svg">
<path d="M24.5 32.88C24.5 32.88 24.49 32.84 24.48 32.76C24.5 32.84 24.5 32.88 24.5 32.88Z" fill="#F50057"/>
<path d="M27.375 8.62501C27.375 8.62501 27 7.25001 27.5 6.12501C28 5.00001 28 4.25001 27 3.12501C29 3.00001 29.75 4.37501 29.75 4.37501L29.775 4.53401C29.893 5.30001 29.497 6.02801 28.829 6.42201C28.219 6.78101 27.563 7.43701 27.375 8.62501Z" fill="#F50057"/>
<path d="M41.63 36.24C41.65 36.03 41.97 33.2 41.25 31.88C39.75 36.12 38.25 40 33.88 42.75C34.5 41.5 35.5 39.5 36.5 36.5C33.5 40.5 27.5 44.5 23 44.75C26.04 43.07 27.75 40.91 28.5 39.5C28.5 39.5 26.75 40 24.62 40.25C27.5 38.5 29.5 35.38 28.5 30.5C26.5 36.75 23.75 38.75 20.12 39.12C16.5 39.5 13.25 37.62 13.25 37.62L14.5 37.5C14.5 37.5 11.25 35 12.38 31.75C12.43 31.59 12.49 31.44 12.56 31.3C13.38 29.48 16.17 30.4 15.88 32.37V32.38C15.88 32.38 16.75 34.75 19.12 34.12C19.88 32.88 20.38 31.62 20.38 31.62L20.75 33.25C20.75 33.25 22.5 32.5 22.5 31.12C24 31.69 24.38 32.4 24.47 32.71C24.21 31.31 21.95 21.68 9.98 21.82L7.89 23.76C7.75 23.89 7.53 23.78 7.55 23.6L7.71 22L7.85 21.86C7.81 21.87 7.76 21.86 7.72 21.86L7.71 22L6.89 22.76C6.75 22.89 6.53 22.78 6.55 22.6L6.65 21.58C4.91 20.84 4.75 18.88 4.75 18.88C4.75 18.88 2.58 18.27 3.5 15.5C4 14 5.2 13.85 5.71 13.97C6.36 14.12 7.03 14.13 7.65 13.88C8.55 13.52 9.7 12.83 10.5 11.5C12 9 14.25 8 19.12 8C25.57 8 28.17 9.98001 28.47 10.22C28.29 10.01 27.2 8.56 29.5 6.38C31.77 4.22 31.36 3.71 31.27 3.63C31.61 3.73 36.02 5.23 36.5 11C37 17 30 18.25 30 18.25C30 18.25 39 20 39.12 11.5C40.88 12.5 44.5 16.25 45 24.38C45.49 32.26 41.84 36.03 41.63 36.24Z" fill="#F50057"/>
<path d="M7.85001 21.86L7.71001 22L7.72001 21.86C7.76001 21.86 7.81001 21.87 7.85001 21.86Z" fill="#F50057"/>
<path d="M7.85001 21.86L7.71001 22L7.72001 21.86C7.76001 21.86 7.81001 21.87 7.85001 21.86Z" fill="#F50057"/>
</svg>
