<svg xmlns="http://www.w3.org/2000/svg" fill="none" viewBox="0 0 24 24" id="Shopify--Streamline-Svg-Logos" height="24" width="24">
  <desc>
    Shopify Streamline Icon: https://streamlinehq.com
  </desc>
  <path fill="#95bf46" d="M19.766925 4.825525c-0.01625 -0.118175 -0.1197 -0.1835 -0.205225 -0.190675 -0.085325 -0.007175 -1.891575 -0.141025 -1.891575 -0.141025s-1.254475 -1.2454 -1.3921 -1.3832c-0.1378 -0.137825 -0.406825 -0.0959 -0.511225 -0.065125 -0.015475 0.004525 -0.2741 0.084375 -0.702075 0.2167 -0.4191 -1.2057425 -1.15855 -2.313895 -2.45965 -2.313895 -0.03585 0 -0.07285 0.00151 -0.10985 0.0035875C12.1252 0.46257 11.666825 0.25 11.27095 0.25 8.24025 0.25 6.792275 4.038675 6.338275 5.964075c-1.177625 0.3649 -2.014325 0.6243 -2.121175 0.6579 -0.657325 0.20615 -0.6781 0.2269 -0.764375 0.8463 -0.065125 0.46895 -1.7851225 13.77055 -1.7851225 13.77055L15.0702 23.75l7.262075 -1.57105s-2.5493 -17.23525 -2.56535 -17.353425Zm-5.442975 -1.334125c-0.3366 0.1042 -0.719275 0.222575 -1.134025 0.35095 0.000375 -0.079875 0.00075 -0.1586 0.00075 -0.244475 0 -0.749475 -0.104 -1.3528225 -0.2709 -1.8311975 0.670375 0.0841975 1.11685 0.8468725 1.404175 1.7247225Zm-2.23575 -1.57615c0.186325 0.4670475 0.307525 1.137225 0.307525 2.041675 0 0.04625 -0.000375 0.08855 -0.00075 0.1314 -0.737575 0.228425 -1.53895 0.476475 -2.342225 0.7253 0.451 -1.740575 1.296375 -2.5812225 2.03545 -2.898375Zm-0.9005 -0.8523525c0.130825 0 0.2626 0.0443625 0.3887 0.1312025 -0.971275 0.4570425 -2.0124 1.608225 -2.452075 3.90705 -0.642625 0.198975 -1.2707 0.3934 -1.8514 0.573325 0.515 -1.753425 1.737925 -4.6115775 3.914775 -4.6115775Z" stroke-width="0.25"></path>
  <path fill="#5e8e3e" d="M19.561675 4.63475c-0.085325 -0.007175 -1.8916 -0.141025 -1.8916 -0.141025s-1.25445 -1.2454 -1.392075 -1.3832c-0.05155 -0.05135 -0.121025 -0.0776 -0.1937 -0.088925l-1.013375 20.728125 7.261325 -1.570875s-2.549325 -17.23525 -2.565375 -17.353425c-0.016225 -0.118175 -0.119675 -0.1835 -0.2052 -0.190675Z" stroke-width="0.25"></path>
  <path fill="#ffffff" d="m12.60515 8.64745 -0.895375 2.663525s-0.784575 -0.4187 -1.74625 -0.4187c-1.409825 0 -1.4808 0.884825 -1.4808 1.107775 0 1.2165 3.171175 1.6826 3.171175 4.532075 0 2.2418 -1.421925 3.685425 -3.3392 3.685425 -2.300675 0 -3.477175 -1.431925 -3.477175 -1.431925l0.616 -2.03525s1.209325 1.0383 2.2299 1.0383c0.666775 0 0.93805 -0.525 0.93805 -0.9086 0 -1.586925 -2.6016 -1.6577 -2.6016 -4.265175 0 -2.1946 1.5752 -4.3184 4.75485 -4.3184 1.2252 0 1.830425 0.35095 1.830425 0.35095Z" stroke-width="0.25"></path>
</svg>