<svg xmlns="http://www.w3.org/2000/svg" fill="none" viewBox="0 0 24 24" id="Wordpress-Icon--Streamline-Svg-Logos" height="24" width="24">
  <desc>
    Wordpress Icon Streamline Icon: https://streamlinehq.com
  </desc>
  <path fill="#464342" d="M1.9201475 11.999825c0 3.9897 2.3186025 7.4376 5.6807525 9.071475L2.7928 7.897725c-0.5592625 1.25355 -0.8726525 2.6408 -0.8726525 4.1021Zm16.8840525 -0.50865c0 -1.2457 -0.44745 -2.1084 -0.83125 -2.779875 -0.510925 -0.830275 -0.98985 -1.5334 -0.98985 -2.363675 0 -0.92655 0.70275 -1.78905 1.6926 -1.78905 0.044675 0 0.087075 0.00555 0.1306 0.00805 -1.793275 -1.6429 -4.18245 -2.64599 -6.8066 -2.64599 -3.521325 0 -6.6194 1.806715 -8.421675 4.543215 0.236475 0.0071 0.45935 0.0121 0.64865 0.0121 1.054275 0 2.686275 -0.127925 2.686275 -0.127925 0.54335 -0.032025 0.6074 0.766025 0.064625 0.830275 0 0 -0.54605 0.06425 -1.15365 0.096075L9.4945 18.192275l2.205825 -6.61555 -1.570425 -4.302725c-0.542775 -0.031825 -1.056975 -0.0961 -1.056975 -0.0961 -0.54315 -0.031825 -0.479475 -0.8623 0.063675 -0.830275 0 0 1.6646 0.127925 2.655025 0.127925 1.0541 0 2.686275 -0.127925 2.686275 -0.127925 0.543725 -0.032025 0.6076 0.766025 0.064625 0.830275 0 0 -0.5472 0.064275 -1.15365 0.0961l3.642575 10.835225 1.005375 -3.35965c0.43575 -1.39415 0.767375 -2.395525 0.767375 -3.2584ZM12.17655 12.8815 9.152325 21.669325c0.902975 0.26545 1.857925 0.410625 2.847375 0.410625 1.1738 0 2.299425 -0.2029 3.3472 -0.57135 -0.027025 -0.04315 -0.051575 -0.089 -0.071725 -0.13885L12.17655 12.8815Zm8.667575 -5.7176c0.04335 0.321075 0.0679 0.665725 0.0679 1.036475 0 1.022825 -0.191025 2.17265 -0.766425 3.610325L17.066725 20.712475C20.063325 18.965025 22.0789 15.718525 22.0789 12c0.000175 -1.752425 -0.44745 -3.400325 -1.234775 -4.8361ZM11.9997 0.2504875C5.521075 0.2504875 0.25 5.5212 0.25 11.999825c0 6.479375 5.271075 11.7499 11.7497 11.7499C18.47815 23.749725 23.75 18.4792 23.75 11.999825 23.7498 5.5212 18.47815 0.2504875 11.9997 0.2504875Zm0 22.9606625c-6.181525 0 -11.21095 -5.029425 -11.21095 -11.211325 0 -6.18155 5.029225 -11.210585 11.21095 -11.210585 6.18135 0 11.2104 5.029035 11.2104 11.210585 0 6.1819 -5.02905 11.211325 -11.2104 11.211325Z" stroke-width="0.25"></path>
</svg>